<svg width="223" height="43" viewBox="0 0 223 43" fill="none" xmlns="http://www.w3.org/2000/svg">
<rect width="223" height="43" rx="7" fill="#37265A"/>
<path d="M17.0673 33.36C14.0673 33.36 11.6553 32.976 9.8313 32.208V28.752C10.8633 29.136 11.9673 29.448 13.1433 29.688C14.3433 29.928 15.5313 30.048 16.7073 30.048C18.5553 30.048 19.9353 29.832 20.8473 29.4C21.7833 28.968 22.2513 28.104 22.2513 26.808C22.2513 26.016 22.0593 25.38 21.6753 24.9C21.2913 24.42 20.6553 24.012 19.7673 23.676C18.8793 23.316 17.6553 22.944 16.0953 22.56C13.5993 21.912 11.8473 21.096 10.8393 20.112C9.8313 19.104 9.3273 17.724 9.3273 15.972C9.3273 13.932 10.0713 12.336 11.5593 11.184C13.0473 10.032 15.2673 9.456 18.2193 9.456C19.5633 9.456 20.8233 9.552 21.9993 9.744C23.1993 9.936 24.1353 10.152 24.8073 10.392V13.848C22.9833 13.152 20.9673 12.804 18.7593 12.804C17.0313 12.804 15.6873 13.032 14.7273 13.488C13.7673 13.944 13.2873 14.772 13.2873 15.972C13.2873 16.668 13.4553 17.232 13.7913 17.664C14.1273 18.096 14.7033 18.468 15.5193 18.78C16.3593 19.092 17.5113 19.44 18.9753 19.824C20.8713 20.304 22.3353 20.88 23.3673 21.552C24.4233 22.2 25.1553 22.968 25.5633 23.856C25.9953 24.72 26.2113 25.704 26.2113 26.808C26.2113 28.848 25.4553 30.456 23.9433 31.632C22.4313 32.784 20.1393 33.36 17.0673 33.36ZM38.656 33.36C35.68 33.36 33.376 32.628 31.744 31.164C30.112 29.7 29.296 27.456 29.296 24.432C29.296 21.696 29.992 19.536 31.384 17.952C32.776 16.368 34.888 15.576 37.72 15.576C40.312 15.576 42.256 16.26 43.552 17.628C44.872 18.972 45.532 20.712 45.532 22.848V26.016H33.04C33.232 27.672 33.832 28.812 34.84 29.436C35.848 30.06 37.384 30.372 39.448 30.372C40.312 30.372 41.2 30.288 42.112 30.12C43.024 29.952 43.816 29.736 44.488 29.472V32.352C43.72 32.688 42.832 32.94 41.824 33.108C40.84 33.276 39.784 33.36 38.656 33.36ZM33.04 23.46H42.076V22.272C42.076 21.096 41.752 20.184 41.104 19.536C40.456 18.864 39.364 18.528 37.828 18.528C36.004 18.528 34.744 18.924 34.048 19.716C33.376 20.508 33.04 21.756 33.04 23.46ZM66.0369 33.36C63.0369 33.36 60.7689 32.604 59.2329 31.092C57.6969 29.556 56.9289 27.348 56.9289 24.468C56.9289 21.468 57.7689 19.236 59.4489 17.772C61.1529 16.308 63.4209 15.576 66.2529 15.576C67.4289 15.576 68.4129 15.66 69.2049 15.828C70.0209 15.996 70.8009 16.26 71.5449 16.62V19.536C70.2969 18.912 68.7849 18.6 67.0089 18.6C65.0409 18.6 63.5289 19.044 62.4729 19.932C61.4169 20.796 60.8889 22.308 60.8889 24.468C60.8889 26.508 61.3569 28.008 62.2929 28.968C63.2289 29.904 64.7769 30.372 66.9369 30.372C68.6409 30.372 70.1889 30.048 71.5809 29.4V32.388C70.7889 32.7 69.9369 32.94 69.0249 33.108C68.1369 33.276 67.1409 33.36 66.0369 33.36ZM82.8716 33.36C79.7996 33.36 77.5436 32.592 76.1036 31.056C74.6876 29.52 73.9796 27.324 73.9796 24.468C73.9796 21.612 74.6996 19.416 76.1396 17.88C77.5796 16.344 79.8236 15.576 82.8716 15.576C85.9436 15.576 88.1996 16.344 89.6396 17.88C91.0796 19.416 91.7996 21.612 91.7996 24.468C91.7996 27.324 91.0796 29.52 89.6396 31.056C88.2236 32.592 85.9676 33.36 82.8716 33.36ZM82.8716 30.048C84.6716 30.048 85.9436 29.616 86.6876 28.752C87.4556 27.864 87.8396 26.436 87.8396 24.468C87.8396 22.5 87.4556 21.084 86.6876 20.22C85.9436 19.356 84.6716 18.924 82.8716 18.924C81.0956 18.924 79.8236 19.356 79.0556 20.22C78.3116 21.084 77.9396 22.5 77.9396 24.468C77.9396 26.436 78.3116 27.864 79.0556 28.752C79.8236 29.616 81.0956 30.048 82.8716 30.048ZM95.6176 33V15.936H99.2176L99.3976 17.736C100.166 17.136 101.078 16.632 102.134 16.224C103.214 15.792 104.402 15.576 105.698 15.576C107.906 15.576 109.514 16.092 110.522 17.124C111.53 18.156 112.034 19.764 112.034 21.948V33H108.146V22.128C108.146 20.808 107.87 19.884 107.318 19.356C106.79 18.828 105.782 18.564 104.294 18.564C103.406 18.564 102.53 18.744 101.666 19.104C100.826 19.464 100.118 19.932 99.5416 20.508V33H95.6176ZM116.43 33V15.936H120.03L120.21 17.736C120.978 17.136 121.89 16.632 122.946 16.224C124.026 15.792 125.214 15.576 126.51 15.576C128.718 15.576 130.326 16.092 131.334 17.124C132.342 18.156 132.846 19.764 132.846 21.948V33H128.958V22.128C128.958 20.808 128.682 19.884 128.13 19.356C127.602 18.828 126.594 18.564 125.106 18.564C124.218 18.564 123.342 18.744 122.478 19.104C121.638 19.464 120.93 19.932 120.354 20.508V33H116.43ZM145.531 33.36C142.555 33.36 140.251 32.628 138.619 31.164C136.987 29.7 136.171 27.456 136.171 24.432C136.171 21.696 136.867 19.536 138.259 17.952C139.651 16.368 141.763 15.576 144.595 15.576C147.187 15.576 149.131 16.26 150.427 17.628C151.747 18.972 152.407 20.712 152.407 22.848V26.016H139.915C140.107 27.672 140.707 28.812 141.715 29.436C142.723 30.06 144.259 30.372 146.323 30.372C147.187 30.372 148.075 30.288 148.987 30.12C149.899 29.952 150.691 29.736 151.363 29.472V32.352C150.595 32.688 149.707 32.94 148.699 33.108C147.715 33.276 146.659 33.36 145.531 33.36ZM139.915 23.46H148.951V22.272C148.951 21.096 148.627 20.184 147.979 19.536C147.331 18.864 146.239 18.528 144.703 18.528C142.879 18.528 141.619 18.924 140.923 19.716C140.251 20.508 139.915 21.756 139.915 23.46ZM164.615 33.36C161.615 33.36 159.347 32.604 157.811 31.092C156.275 29.556 155.507 27.348 155.507 24.468C155.507 21.468 156.347 19.236 158.027 17.772C159.731 16.308 161.999 15.576 164.831 15.576C166.007 15.576 166.991 15.66 167.783 15.828C168.599 15.996 169.379 16.26 170.123 16.62V19.536C168.875 18.912 167.363 18.6 165.587 18.6C163.619 18.6 162.107 19.044 161.051 19.932C159.995 20.796 159.467 22.308 159.467 24.468C159.467 26.508 159.935 28.008 160.871 28.968C161.807 29.904 163.355 30.372 165.515 30.372C167.219 30.372 168.767 30.048 170.159 29.4V32.388C169.367 32.7 168.515 32.94 167.603 33.108C166.715 33.276 165.719 33.36 164.615 33.36ZM179.794 33.36C177.97 33.36 176.602 32.88 175.69 31.92C174.802 30.936 174.358 29.604 174.358 27.924V18.996H171.838V15.936H174.358V12.012L178.246 10.824V15.936H182.782L182.53 18.996H178.246V27.708C178.246 28.692 178.474 29.388 178.93 29.796C179.386 30.18 180.13 30.372 181.162 30.372C181.81 30.372 182.494 30.252 183.214 30.012V32.784C182.278 33.168 181.138 33.36 179.794 33.36ZM194.855 33.36C191.879 33.36 189.575 32.628 187.943 31.164C186.311 29.7 185.495 27.456 185.495 24.432C185.495 21.696 186.191 19.536 187.583 17.952C188.975 16.368 191.087 15.576 193.919 15.576C196.511 15.576 198.455 16.26 199.751 17.628C201.071 18.972 201.731 20.712 201.731 22.848V26.016H189.239C189.431 27.672 190.031 28.812 191.039 29.436C192.047 30.06 193.583 30.372 195.647 30.372C196.511 30.372 197.399 30.288 198.311 30.12C199.223 29.952 200.015 29.736 200.687 29.472V32.352C199.919 32.688 199.031 32.94 198.023 33.108C197.039 33.276 195.983 33.36 194.855 33.36ZM189.239 23.46H198.275V22.272C198.275 21.096 197.951 20.184 197.303 19.536C196.655 18.864 195.563 18.528 194.027 18.528C192.203 18.528 190.943 18.924 190.247 19.716C189.575 20.508 189.239 21.756 189.239 23.46ZM205.551 33V15.936H209.151L209.367 17.916C210.183 17.388 211.155 16.908 212.283 16.476C213.411 16.044 214.527 15.744 215.631 15.576V18.564C214.959 18.684 214.227 18.864 213.435 19.104C212.667 19.32 211.935 19.572 211.239 19.86C210.543 20.124 209.955 20.4 209.475 20.688V33H205.551Z" fill="#B8AAF3"/>
</svg>
