<svg width="161" height="50" viewBox="0 0 161 50" fill="none" xmlns="http://www.w3.org/2000/svg">
<rect y="7" width="161" height="43" rx="7" fill="#251949"/>
<path d="M17.9267 40.36C14.9267 40.36 12.5147 39.976 10.6907 39.208V35.752C11.7227 36.136 12.8267 36.448 14.0027 36.688C15.2027 36.928 16.3907 37.048 17.5667 37.048C19.4147 37.048 20.7947 36.832 21.7067 36.4C22.6427 35.968 23.1107 35.104 23.1107 33.808C23.1107 33.016 22.9187 32.38 22.5347 31.9C22.1507 31.42 21.5147 31.012 20.6267 30.676C19.7387 30.316 18.5147 29.944 16.9547 29.56C14.4587 28.912 12.7067 28.096 11.6987 27.112C10.6907 26.104 10.1867 24.724 10.1867 22.972C10.1867 20.932 10.9307 19.336 12.4187 18.184C13.9067 17.032 16.1267 16.456 19.0787 16.456C20.4227 16.456 21.6827 16.552 22.8587 16.744C24.0587 16.936 24.9947 17.152 25.6667 17.392V20.848C23.8427 20.152 21.8267 19.804 19.6187 19.804C17.8907 19.804 16.5467 20.032 15.5867 20.488C14.6267 20.944 14.1467 21.772 14.1467 22.972C14.1467 23.668 14.3147 24.232 14.6507 24.664C14.9867 25.096 15.5627 25.468 16.3787 25.78C17.2187 26.092 18.3707 26.44 19.8347 26.824C21.7307 27.304 23.1947 27.88 24.2267 28.552C25.2827 29.2 26.0147 29.968 26.4227 30.856C26.8547 31.72 27.0707 32.704 27.0707 33.808C27.0707 35.848 26.3147 37.456 24.8027 38.632C23.2907 39.784 20.9987 40.36 17.9267 40.36ZM29.6281 23.476L31.5361 16.456H34.9561L32.5801 23.476H29.6281ZM38.9951 19.372V16.132H43.2791V19.372H38.9951ZM39.3191 40V25.924H36.7271L37.0871 22.936H43.2431V40H39.3191ZM47.8207 40V22.936H51.4207L51.6007 24.736C52.3687 24.136 53.2807 23.632 54.3367 23.224C55.4167 22.792 56.6047 22.576 57.9007 22.576C60.1087 22.576 61.7167 23.092 62.7247 24.124C63.7327 25.156 64.2367 26.764 64.2367 28.948V40H60.3487V29.128C60.3487 27.808 60.0727 26.884 59.5207 26.356C58.9927 25.828 57.9847 25.564 56.4967 25.564C55.6087 25.564 54.7327 25.744 53.8687 26.104C53.0287 26.464 52.3207 26.932 51.7447 27.508V40H47.8207ZM74.3212 40.36C73.1452 40.36 72.0172 40.276 70.9372 40.108C69.8812 39.94 69.0052 39.736 68.3092 39.496V36.184C69.1252 36.496 70.0252 36.736 71.0092 36.904C71.9932 37.072 72.9292 37.156 73.8172 37.156C75.1612 37.156 76.1212 37.036 76.6972 36.796C77.2732 36.556 77.5612 36.088 77.5612 35.392C77.5612 34.888 77.3812 34.492 77.0212 34.204C76.6852 33.916 76.1692 33.652 75.4732 33.412C74.8012 33.172 73.9372 32.884 72.8812 32.548C71.8732 32.212 70.9972 31.852 70.2532 31.468C69.5092 31.06 68.9332 30.544 68.5252 29.92C68.1172 29.296 67.9132 28.48 67.9132 27.472C67.9132 25.912 68.4772 24.712 69.6052 23.872C70.7332 23.008 72.5452 22.576 75.0412 22.576C76.0252 22.576 76.9612 22.648 77.8492 22.792C78.7372 22.936 79.4932 23.116 80.1172 23.332V26.608C79.4452 26.344 78.7012 26.14 77.8852 25.996C77.0932 25.852 76.3492 25.78 75.6532 25.78C74.4052 25.78 73.4572 25.888 72.8092 26.104C72.1852 26.32 71.8732 26.752 71.8732 27.4C71.8732 28.072 72.1972 28.552 72.8452 28.84C73.5172 29.104 74.5852 29.476 76.0492 29.956C77.3932 30.364 78.4612 30.796 79.2532 31.252C80.0452 31.708 80.6092 32.26 80.9452 32.908C81.3052 33.532 81.4852 34.348 81.4852 35.356C81.4852 37.036 80.8732 38.296 79.6492 39.136C78.4252 39.952 76.6492 40.36 74.3212 40.36ZM93.1931 40.36C90.1931 40.36 87.9251 39.604 86.3891 38.092C84.8531 36.556 84.0851 34.348 84.0851 31.468C84.0851 28.468 84.9251 26.236 86.6051 24.772C88.3091 23.308 90.5771 22.576 93.4091 22.576C94.5851 22.576 95.5691 22.66 96.3611 22.828C97.1771 22.996 97.9571 23.26 98.7011 23.62V26.536C97.4531 25.912 95.9411 25.6 94.1651 25.6C92.1971 25.6 90.6851 26.044 89.6291 26.932C88.5731 27.796 88.0451 29.308 88.0451 31.468C88.0451 33.508 88.5131 35.008 89.4491 35.968C90.3851 36.904 91.9331 37.372 94.0931 37.372C95.7971 37.372 97.3451 37.048 98.7371 36.4V39.388C97.9451 39.7 97.0931 39.94 96.1811 40.108C95.2931 40.276 94.2971 40.36 93.1931 40.36ZM101.856 40V22.936H105.456L105.672 24.916C106.488 24.388 107.46 23.908 108.588 23.476C109.716 23.044 110.832 22.744 111.936 22.576V25.564C111.264 25.684 110.532 25.864 109.74 26.104C108.972 26.32 108.24 26.572 107.544 26.86C106.848 27.124 106.26 27.4 105.78 27.688V40H101.856ZM116.233 19.372V16.132H120.517V19.372H116.233ZM116.557 40V25.924H113.965L114.325 22.936H120.481V40H116.557ZM125.059 40V22.936H128.659L128.875 24.916C129.691 24.388 130.663 23.908 131.791 23.476C132.919 23.044 134.035 22.744 135.139 22.576V25.564C134.467 25.684 133.735 25.864 132.943 26.104C132.175 26.32 131.443 26.572 130.747 26.86C130.051 27.124 129.463 27.4 128.983 27.688V40H125.059ZM145.933 40.36C142.957 40.36 140.653 39.628 139.021 38.164C137.389 36.7 136.573 34.456 136.573 31.432C136.573 28.696 137.269 26.536 138.661 24.952C140.053 23.368 142.165 22.576 144.997 22.576C147.589 22.576 149.533 23.26 150.829 24.628C152.149 25.972 152.809 27.712 152.809 29.848V33.016H140.317C140.509 34.672 141.109 35.812 142.117 36.436C143.125 37.06 144.661 37.372 146.725 37.372C147.589 37.372 148.477 37.288 149.389 37.12C150.301 36.952 151.093 36.736 151.765 36.472V39.352C150.997 39.688 150.109 39.94 149.101 40.108C148.117 40.276 147.061 40.36 145.933 40.36ZM140.317 30.46H149.353V29.272C149.353 28.096 149.029 27.184 148.381 26.536C147.733 25.864 146.641 25.528 145.105 25.528C143.281 25.528 142.021 25.924 141.325 26.716C140.653 27.508 140.317 28.756 140.317 30.46Z" fill="#8874DF"/>
</svg>
