<svg width="161" height="43" viewBox="0 0 161 43" fill="none" xmlns="http://www.w3.org/2000/svg">
<rect width="161" height="43" rx="7" fill="#251949"/>
<path d="M17.9267 33.36C14.9267 33.36 12.5147 32.976 10.6907 32.208V28.752C11.7227 29.136 12.8267 29.448 14.0027 29.688C15.2027 29.928 16.3907 30.048 17.5667 30.048C19.4147 30.048 20.7947 29.832 21.7067 29.4C22.6427 28.968 23.1107 28.104 23.1107 26.808C23.1107 26.016 22.9187 25.38 22.5347 24.9C22.1507 24.42 21.5147 24.012 20.6267 23.676C19.7387 23.316 18.5147 22.944 16.9547 22.56C14.4587 21.912 12.7067 21.096 11.6987 20.112C10.6907 19.104 10.1867 17.724 10.1867 15.972C10.1867 13.932 10.9307 12.336 12.4187 11.184C13.9067 10.032 16.1267 9.456 19.0787 9.456C20.4227 9.456 21.6827 9.552 22.8587 9.744C24.0587 9.936 24.9947 10.152 25.6667 10.392V13.848C23.8427 13.152 21.8267 12.804 19.6187 12.804C17.8907 12.804 16.5467 13.032 15.5867 13.488C14.6267 13.944 14.1467 14.772 14.1467 15.972C14.1467 16.668 14.3147 17.232 14.6507 17.664C14.9867 18.096 15.5627 18.468 16.3787 18.78C17.2187 19.092 18.3707 19.44 19.8347 19.824C21.7307 20.304 23.1947 20.88 24.2267 21.552C25.2827 22.2 26.0147 22.968 26.4227 23.856C26.8547 24.72 27.0707 25.704 27.0707 26.808C27.0707 28.848 26.3147 30.456 24.8027 31.632C23.2907 32.784 20.9987 33.36 17.9267 33.36ZM29.6281 16.476L31.5361 9.456H34.9561L32.5801 16.476H29.6281ZM38.9951 12.372V9.132H43.2791V12.372H38.9951ZM39.3191 33V18.924H36.7271L37.0871 15.936H43.2431V33H39.3191ZM47.8207 33V15.936H51.4207L51.6007 17.736C52.3687 17.136 53.2807 16.632 54.3367 16.224C55.4167 15.792 56.6047 15.576 57.9007 15.576C60.1087 15.576 61.7167 16.092 62.7247 17.124C63.7327 18.156 64.2367 19.764 64.2367 21.948V33H60.3487V22.128C60.3487 20.808 60.0727 19.884 59.5207 19.356C58.9927 18.828 57.9847 18.564 56.4967 18.564C55.6087 18.564 54.7327 18.744 53.8687 19.104C53.0287 19.464 52.3207 19.932 51.7447 20.508V33H47.8207ZM74.3212 33.36C73.1452 33.36 72.0172 33.276 70.9372 33.108C69.8812 32.94 69.0052 32.736 68.3092 32.496V29.184C69.1252 29.496 70.0252 29.736 71.0092 29.904C71.9932 30.072 72.9292 30.156 73.8172 30.156C75.1612 30.156 76.1212 30.036 76.6972 29.796C77.2732 29.556 77.5612 29.088 77.5612 28.392C77.5612 27.888 77.3812 27.492 77.0212 27.204C76.6852 26.916 76.1692 26.652 75.4732 26.412C74.8012 26.172 73.9372 25.884 72.8812 25.548C71.8732 25.212 70.9972 24.852 70.2532 24.468C69.5092 24.06 68.9332 23.544 68.5252 22.92C68.1172 22.296 67.9132 21.48 67.9132 20.472C67.9132 18.912 68.4772 17.712 69.6052 16.872C70.7332 16.008 72.5452 15.576 75.0412 15.576C76.0252 15.576 76.9612 15.648 77.8492 15.792C78.7372 15.936 79.4932 16.116 80.1172 16.332V19.608C79.4452 19.344 78.7012 19.14 77.8852 18.996C77.0932 18.852 76.3492 18.78 75.6532 18.78C74.4052 18.78 73.4572 18.888 72.8092 19.104C72.1852 19.32 71.8732 19.752 71.8732 20.4C71.8732 21.072 72.1972 21.552 72.8452 21.84C73.5172 22.104 74.5852 22.476 76.0492 22.956C77.3932 23.364 78.4612 23.796 79.2532 24.252C80.0452 24.708 80.6092 25.26 80.9452 25.908C81.3052 26.532 81.4852 27.348 81.4852 28.356C81.4852 30.036 80.8732 31.296 79.6492 32.136C78.4252 32.952 76.6492 33.36 74.3212 33.36ZM93.1931 33.36C90.1931 33.36 87.9251 32.604 86.3891 31.092C84.8531 29.556 84.0851 27.348 84.0851 24.468C84.0851 21.468 84.9251 19.236 86.6051 17.772C88.3091 16.308 90.5771 15.576 93.4091 15.576C94.5851 15.576 95.5691 15.66 96.3611 15.828C97.1771 15.996 97.9571 16.26 98.7011 16.62V19.536C97.4531 18.912 95.9411 18.6 94.1651 18.6C92.1971 18.6 90.6851 19.044 89.6291 19.932C88.5731 20.796 88.0451 22.308 88.0451 24.468C88.0451 26.508 88.5131 28.008 89.4491 28.968C90.3851 29.904 91.9331 30.372 94.0931 30.372C95.7971 30.372 97.3451 30.048 98.7371 29.4V32.388C97.9451 32.7 97.0931 32.94 96.1811 33.108C95.2931 33.276 94.2971 33.36 93.1931 33.36ZM101.856 33V15.936H105.456L105.672 17.916C106.488 17.388 107.46 16.908 108.588 16.476C109.716 16.044 110.832 15.744 111.936 15.576V18.564C111.264 18.684 110.532 18.864 109.74 19.104C108.972 19.32 108.24 19.572 107.544 19.86C106.848 20.124 106.26 20.4 105.78 20.688V33H101.856ZM116.233 12.372V9.132H120.517V12.372H116.233ZM116.557 33V18.924H113.965L114.325 15.936H120.481V33H116.557ZM125.059 33V15.936H128.659L128.875 17.916C129.691 17.388 130.663 16.908 131.791 16.476C132.919 16.044 134.035 15.744 135.139 15.576V18.564C134.467 18.684 133.735 18.864 132.943 19.104C132.175 19.32 131.443 19.572 130.747 19.86C130.051 20.124 129.463 20.4 128.983 20.688V33H125.059ZM145.933 33.36C142.957 33.36 140.653 32.628 139.021 31.164C137.389 29.7 136.573 27.456 136.573 24.432C136.573 21.696 137.269 19.536 138.661 17.952C140.053 16.368 142.165 15.576 144.997 15.576C147.589 15.576 149.533 16.26 150.829 17.628C152.149 18.972 152.809 20.712 152.809 22.848V26.016H140.317C140.509 27.672 141.109 28.812 142.117 29.436C143.125 30.06 144.661 30.372 146.725 30.372C147.589 30.372 148.477 30.288 149.389 30.12C150.301 29.952 151.093 29.736 151.765 29.472V32.352C150.997 32.688 150.109 32.94 149.101 33.108C148.117 33.276 147.061 33.36 145.933 33.36ZM140.317 23.46H149.353V22.272C149.353 21.096 149.029 20.184 148.381 19.536C147.733 18.864 146.641 18.528 145.105 18.528C143.281 18.528 142.021 18.924 141.325 19.716C140.653 20.508 140.317 21.756 140.317 23.46Z" fill="#8874DF"/>
</svg>
