<svg width="270" height="45" viewBox="0 0 270 45" fill="none" xmlns="http://www.w3.org/2000/svg">
<rect y="0.5" width="270" height="44" rx="7" fill="#37265A"/>
<path d="M20.0985 32.86C17.0985 32.86 14.6865 32.476 12.8625 31.708V28.252C13.8945 28.636 14.9985 28.948 16.1745 29.188C17.3745 29.428 18.5625 29.548 19.7385 29.548C21.5865 29.548 22.9665 29.332 23.8785 28.9C24.8145 28.468 25.2825 27.604 25.2825 26.308C25.2825 25.516 25.0905 24.88 24.7065 24.4C24.3225 23.92 23.6865 23.512 22.7985 23.176C21.9105 22.816 20.6865 22.444 19.1265 22.06C16.6305 21.412 14.8785 20.596 13.8705 19.612C12.8625 18.604 12.3585 17.224 12.3585 15.472C12.3585 13.432 13.1025 11.836 14.5905 10.684C16.0785 9.532 18.2985 8.956 21.2505 8.956C22.5945 8.956 23.8545 9.052 25.0305 9.244C26.2305 9.436 27.1665 9.652 27.8385 9.892V13.348C26.0145 12.652 23.9985 12.304 21.7905 12.304C20.0625 12.304 18.7185 12.532 17.7585 12.988C16.7985 13.444 16.3185 14.272 16.3185 15.472C16.3185 16.168 16.4865 16.732 16.8225 17.164C17.1585 17.596 17.7345 17.968 18.5505 18.28C19.3905 18.592 20.5425 18.94 22.0065 19.324C23.9025 19.804 25.3665 20.38 26.3985 21.052C27.4545 21.7 28.1865 22.468 28.5945 23.356C29.0265 24.22 29.2425 25.204 29.2425 26.308C29.2425 28.348 28.4865 29.956 26.9745 31.132C25.4625 32.284 23.1705 32.86 20.0985 32.86ZM41.6873 32.86C38.7113 32.86 36.4073 32.128 34.7753 30.664C33.1433 29.2 32.3273 26.956 32.3273 23.932C32.3273 21.196 33.0233 19.036 34.4153 17.452C35.8073 15.868 37.9193 15.076 40.7513 15.076C43.3433 15.076 45.2873 15.76 46.5833 17.128C47.9033 18.472 48.5633 20.212 48.5633 22.348V25.516H36.0713C36.2633 27.172 36.8633 28.312 37.8713 28.936C38.8793 29.56 40.4153 29.872 42.4793 29.872C43.3433 29.872 44.2313 29.788 45.1433 29.62C46.0553 29.452 46.8473 29.236 47.5193 28.972V31.852C46.7513 32.188 45.8633 32.44 44.8553 32.608C43.8713 32.776 42.8153 32.86 41.6873 32.86ZM36.0713 22.96H45.1073V21.772C45.1073 20.596 44.7833 19.684 44.1353 19.036C43.4873 18.364 42.3953 18.028 40.8593 18.028C39.0353 18.028 37.7753 18.424 37.0793 19.216C36.4073 20.008 36.0713 21.256 36.0713 22.96ZM67.7361 32.86C66.2001 32.86 64.8441 32.596 63.6681 32.068C62.4921 31.54 61.5801 30.664 60.9321 29.44C60.2841 28.216 59.9601 26.572 59.9601 24.508C59.9601 22.468 60.3081 20.752 61.0041 19.36C61.7001 17.944 62.6601 16.876 63.8841 16.156C65.1321 15.436 66.5361 15.076 68.0961 15.076C69.1281 15.076 70.0401 15.196 70.8321 15.436C71.6481 15.676 72.4281 16.048 73.1721 16.552V8.236H77.0961V32.5H73.7481L73.4961 30.808C72.7281 31.504 71.8881 32.02 70.9761 32.356C70.0641 32.692 68.9841 32.86 67.7361 32.86ZM68.7801 29.908C70.5321 29.908 71.9961 29.308 73.1721 28.108V19.576C72.0441 18.568 70.6281 18.064 68.9241 18.064C67.2681 18.064 66.0201 18.616 65.1801 19.72C64.3401 20.824 63.9201 22.432 63.9201 24.544C63.9201 26.584 64.3041 27.988 65.0721 28.756C65.8641 29.524 67.1001 29.908 68.7801 29.908ZM87.1137 13.708L89.8137 7.336H93.2697L90.2457 13.708H87.1137ZM89.9217 32.86C86.9457 32.86 84.6417 32.128 83.0097 30.664C81.3777 29.2 80.5617 26.956 80.5617 23.932C80.5617 21.196 81.2577 19.036 82.6497 17.452C84.0417 15.868 86.1537 15.076 88.9857 15.076C91.5777 15.076 93.5217 15.76 94.8177 17.128C96.1377 18.472 96.7977 20.212 96.7977 22.348V25.516H84.3057C84.4977 27.172 85.0977 28.312 86.1057 28.936C87.1137 29.56 88.6497 29.872 90.7137 29.872C91.5777 29.872 92.4657 29.788 93.3777 29.62C94.2897 29.452 95.0817 29.236 95.7537 28.972V31.852C94.9857 32.188 94.0977 32.44 93.0897 32.608C92.1057 32.776 91.0497 32.86 89.9217 32.86ZM84.3057 22.96H93.3417V21.772C93.3417 20.596 93.0177 19.684 92.3697 19.036C91.7217 18.364 90.6297 18.028 89.0937 18.028C87.2697 18.028 86.0097 18.424 85.3137 19.216C84.6417 20.008 84.3057 21.256 84.3057 22.96ZM109.006 32.86C106.006 32.86 103.738 32.104 102.202 30.592C100.666 29.056 99.8976 26.848 99.8976 23.968C99.8976 20.968 100.738 18.736 102.418 17.272C104.122 15.808 106.39 15.076 109.222 15.076C110.398 15.076 111.382 15.16 112.174 15.328C112.99 15.496 113.77 15.76 114.514 16.12V19.036C113.266 18.412 111.754 18.1 109.978 18.1C108.01 18.1 106.498 18.544 105.442 19.432C104.386 20.296 103.858 21.808 103.858 23.968C103.858 26.008 104.326 27.508 105.262 28.468C106.198 29.404 107.746 29.872 109.906 29.872C111.61 29.872 113.158 29.548 114.55 28.9V31.888C113.758 32.2 112.906 32.44 111.994 32.608C111.106 32.776 110.11 32.86 109.006 32.86ZM125.84 32.86C122.768 32.86 120.512 32.092 119.072 30.556C117.656 29.02 116.948 26.824 116.948 23.968C116.948 21.112 117.668 18.916 119.108 17.38C120.548 15.844 122.792 15.076 125.84 15.076C128.912 15.076 131.168 15.844 132.608 17.38C134.048 18.916 134.768 21.112 134.768 23.968C134.768 26.824 134.048 29.02 132.608 30.556C131.192 32.092 128.936 32.86 125.84 32.86ZM125.84 29.548C127.64 29.548 128.912 29.116 129.656 28.252C130.424 27.364 130.808 25.936 130.808 23.968C130.808 22 130.424 20.584 129.656 19.72C128.912 18.856 127.64 18.424 125.84 18.424C124.064 18.424 122.792 18.856 122.024 19.72C121.28 20.584 120.908 22 120.908 23.968C120.908 25.936 121.28 27.364 122.024 28.252C122.792 29.116 124.064 29.548 125.84 29.548ZM138.586 32.5V15.436H142.186L142.366 17.236C143.134 16.636 144.046 16.132 145.102 15.724C146.182 15.292 147.37 15.076 148.666 15.076C150.874 15.076 152.482 15.592 153.49 16.624C154.498 17.656 155.002 19.264 155.002 21.448V32.5H151.114V21.628C151.114 20.308 150.838 19.384 150.286 18.856C149.758 18.328 148.75 18.064 147.262 18.064C146.374 18.064 145.498 18.244 144.634 18.604C143.794 18.964 143.086 19.432 142.51 20.008V32.5H138.586ZM159.399 32.5V15.436H162.999L163.179 17.236C163.947 16.636 164.859 16.132 165.915 15.724C166.995 15.292 168.183 15.076 169.479 15.076C171.687 15.076 173.295 15.592 174.303 16.624C175.311 17.656 175.815 19.264 175.815 21.448V32.5H171.927V21.628C171.927 20.308 171.651 19.384 171.099 18.856C170.571 18.328 169.563 18.064 168.075 18.064C167.187 18.064 166.311 18.244 165.447 18.604C164.607 18.964 163.899 19.432 163.323 20.008V32.5H159.399ZM188.5 32.86C185.524 32.86 183.22 32.128 181.588 30.664C179.956 29.2 179.14 26.956 179.14 23.932C179.14 21.196 179.836 19.036 181.228 17.452C182.62 15.868 184.732 15.076 187.564 15.076C190.156 15.076 192.1 15.76 193.396 17.128C194.716 18.472 195.376 20.212 195.376 22.348V25.516H182.884C183.076 27.172 183.676 28.312 184.684 28.936C185.692 29.56 187.228 29.872 189.292 29.872C190.156 29.872 191.044 29.788 191.956 29.62C192.868 29.452 193.66 29.236 194.332 28.972V31.852C193.564 32.188 192.676 32.44 191.668 32.608C190.684 32.776 189.628 32.86 188.5 32.86ZM182.884 22.96H191.92V21.772C191.92 20.596 191.596 19.684 190.948 19.036C190.3 18.364 189.208 18.028 187.672 18.028C185.848 18.028 184.588 18.424 183.892 19.216C183.22 20.008 182.884 21.256 182.884 22.96ZM207.584 32.86C204.584 32.86 202.316 32.104 200.78 30.592C199.244 29.056 198.476 26.848 198.476 23.968C198.476 20.968 199.316 18.736 200.996 17.272C202.7 15.808 204.968 15.076 207.8 15.076C208.976 15.076 209.96 15.16 210.752 15.328C211.568 15.496 212.348 15.76 213.092 16.12V19.036C211.844 18.412 210.332 18.1 208.556 18.1C206.588 18.1 205.076 18.544 204.02 19.432C202.964 20.296 202.436 21.808 202.436 23.968C202.436 26.008 202.904 27.508 203.84 28.468C204.776 29.404 206.324 29.872 208.484 29.872C210.188 29.872 211.736 29.548 213.128 28.9V31.888C212.336 32.2 211.484 32.44 210.572 32.608C209.684 32.776 208.688 32.86 207.584 32.86ZM222.763 32.86C220.939 32.86 219.571 32.38 218.659 31.42C217.771 30.436 217.327 29.104 217.327 27.424V18.496H214.807V15.436H217.327V11.512L221.215 10.324V15.436H225.751L225.499 18.496H221.215V27.208C221.215 28.192 221.443 28.888 221.899 29.296C222.355 29.68 223.099 29.872 224.131 29.872C224.779 29.872 225.463 29.752 226.183 29.512V32.284C225.247 32.668 224.107 32.86 222.763 32.86ZM237.824 32.86C234.848 32.86 232.544 32.128 230.912 30.664C229.28 29.2 228.464 26.956 228.464 23.932C228.464 21.196 229.16 19.036 230.552 17.452C231.944 15.868 234.056 15.076 236.888 15.076C239.48 15.076 241.424 15.76 242.72 17.128C244.04 18.472 244.7 20.212 244.7 22.348V25.516H232.208C232.4 27.172 233 28.312 234.008 28.936C235.016 29.56 236.552 29.872 238.616 29.872C239.48 29.872 240.368 29.788 241.28 29.62C242.192 29.452 242.984 29.236 243.656 28.972V31.852C242.888 32.188 242 32.44 240.992 32.608C240.008 32.776 238.952 32.86 237.824 32.86ZM232.208 22.96H241.244V21.772C241.244 20.596 240.92 19.684 240.272 19.036C239.624 18.364 238.532 18.028 236.996 18.028C235.172 18.028 233.912 18.424 233.216 19.216C232.544 20.008 232.208 21.256 232.208 22.96ZM248.52 32.5V15.436H252.12L252.336 17.416C253.152 16.888 254.124 16.408 255.252 15.976C256.38 15.544 257.496 15.244 258.6 15.076V18.064C257.928 18.184 257.196 18.364 256.404 18.604C255.636 18.82 254.904 19.072 254.208 19.36C253.512 19.624 252.924 19.9 252.444 20.188V32.5H248.52Z" fill="#B8AAF3"/>
</svg>
