<svg width="120" height="43" viewBox="0 0 120 43" fill="none" xmlns="http://www.w3.org/2000/svg">
<rect width="120" height="43" rx="7" fill="#66529E"/>
<path d="M12.3559 33V9.816H28.1239V12.876H16.2799V19.896H26.7919V22.92H16.2799V33H12.3559ZM32.1475 12.372V9.132H36.4315V12.372H32.1475ZM32.4715 33V18.924H29.8795L30.2395 15.936H36.3955V33H32.4715ZM45.2211 33.36C43.8291 33.36 42.7731 33.024 42.0531 32.352C41.3331 31.656 40.9731 30.516 40.9731 28.932V8.736H44.8971V28.572C44.8971 29.244 45.0171 29.7 45.2571 29.94C45.4971 30.18 45.8571 30.3 46.3371 30.3C46.9131 30.3 47.4651 30.228 47.9931 30.084V32.928C47.5371 33.096 47.0931 33.204 46.6611 33.252C46.2531 33.324 45.7731 33.36 45.2211 33.36ZM56.6649 33.36C54.8409 33.36 53.4729 32.88 52.5609 31.92C51.6729 30.936 51.2289 29.604 51.2289 27.924V18.996H48.7089V15.936H51.2289V12.012L55.1169 10.824V15.936H59.6529L59.4009 18.996H55.1169V27.708C55.1169 28.692 55.3449 29.388 55.8009 29.796C56.2569 30.18 57.0009 30.372 58.0329 30.372C58.6809 30.372 59.3649 30.252 60.0849 30.012V32.784C59.1489 33.168 58.0089 33.36 56.6649 33.36ZM63.0864 33V15.936H66.6864L66.9024 17.916C67.7184 17.388 68.6904 16.908 69.8184 16.476C70.9464 16.044 72.0624 15.744 73.1664 15.576V18.564C72.4944 18.684 71.7624 18.864 70.9704 19.104C70.2024 19.32 69.4704 19.572 68.7744 19.86C68.0784 20.124 67.4904 20.4 67.0104 20.688V33H63.0864ZM83.9607 33.36C80.9847 33.36 78.6807 32.628 77.0487 31.164C75.4167 29.7 74.6007 27.456 74.6007 24.432C74.6007 21.696 75.2967 19.536 76.6887 17.952C78.0807 16.368 80.1927 15.576 83.0247 15.576C85.6167 15.576 87.5607 16.26 88.8567 17.628C90.1767 18.972 90.8367 20.712 90.8367 22.848V26.016H78.3447C78.5367 27.672 79.1367 28.812 80.1447 29.436C81.1527 30.06 82.6887 30.372 84.7527 30.372C85.6167 30.372 86.5047 30.288 87.4167 30.12C88.3287 29.952 89.1207 29.736 89.7927 29.472V32.352C89.0247 32.688 88.1367 32.94 87.1287 33.108C86.1447 33.276 85.0887 33.36 83.9607 33.36ZM78.3447 23.46H87.3807V22.272C87.3807 21.096 87.0567 20.184 86.4087 19.536C85.7607 18.864 84.6687 18.528 83.1327 18.528C81.3087 18.528 80.0487 18.924 79.3527 19.716C78.6807 20.508 78.3447 21.756 78.3447 23.46ZM100.169 33.36C98.9929 33.36 97.8649 33.276 96.7849 33.108C95.7289 32.94 94.8529 32.736 94.1569 32.496V29.184C94.9729 29.496 95.8729 29.736 96.8569 29.904C97.8409 30.072 98.7769 30.156 99.6649 30.156C101.009 30.156 101.969 30.036 102.545 29.796C103.121 29.556 103.409 29.088 103.409 28.392C103.409 27.888 103.229 27.492 102.869 27.204C102.533 26.916 102.017 26.652 101.321 26.412C100.649 26.172 99.7849 25.884 98.7289 25.548C97.7209 25.212 96.8449 24.852 96.1009 24.468C95.3569 24.06 94.7809 23.544 94.3729 22.92C93.9649 22.296 93.7609 21.48 93.7609 20.472C93.7609 18.912 94.3249 17.712 95.4529 16.872C96.5809 16.008 98.3929 15.576 100.889 15.576C101.873 15.576 102.809 15.648 103.697 15.792C104.585 15.936 105.341 16.116 105.965 16.332V19.608C105.293 19.344 104.549 19.14 103.733 18.996C102.941 18.852 102.197 18.78 101.501 18.78C100.253 18.78 99.3049 18.888 98.6569 19.104C98.0329 19.32 97.7209 19.752 97.7209 20.4C97.7209 21.072 98.0449 21.552 98.6929 21.84C99.3649 22.104 100.433 22.476 101.897 22.956C103.241 23.364 104.309 23.796 105.101 24.252C105.893 24.708 106.457 25.26 106.793 25.908C107.153 26.532 107.333 27.348 107.333 28.356C107.333 30.036 106.721 31.296 105.497 32.136C104.273 32.952 102.497 33.36 100.169 33.36Z" fill="#D6CDFF"/>
</svg>
