<svg width="120" height="43" viewBox="0 0 120 43" fill="none" xmlns="http://www.w3.org/2000/svg">
<rect width="120" height="43" rx="7" fill="#251949"/>
<path d="M12.8558 33V9.816H28.6238V12.876H16.7798V19.896H27.2918V22.92H16.7798V33H12.8558ZM32.6474 12.372V9.132H36.9314V12.372H32.6474ZM32.9714 33V18.924H30.3794L30.7394 15.936H36.8954V33H32.9714ZM45.721 33.36C44.329 33.36 43.273 33.024 42.553 32.352C41.833 31.656 41.473 30.516 41.473 28.932V8.736H45.397V28.572C45.397 29.244 45.517 29.7 45.757 29.94C45.997 30.18 46.357 30.3 46.837 30.3C47.413 30.3 47.965 30.228 48.493 30.084V32.928C48.037 33.096 47.593 33.204 47.161 33.252C46.753 33.324 46.273 33.36 45.721 33.36ZM57.1648 33.36C55.3408 33.36 53.9728 32.88 53.0608 31.92C52.1728 30.936 51.7288 29.604 51.7288 27.924V18.996H49.2088V15.936H51.7288V12.012L55.6168 10.824V15.936H60.1528L59.9008 18.996H55.6168V27.708C55.6168 28.692 55.8448 29.388 56.3008 29.796C56.7568 30.18 57.5008 30.372 58.5328 30.372C59.1808 30.372 59.8648 30.252 60.5848 30.012V32.784C59.6488 33.168 58.5088 33.36 57.1648 33.36ZM63.5863 33V15.936H67.1863L67.4023 17.916C68.2183 17.388 69.1903 16.908 70.3183 16.476C71.4463 16.044 72.5623 15.744 73.6663 15.576V18.564C72.9943 18.684 72.2623 18.864 71.4703 19.104C70.7023 19.32 69.9703 19.572 69.2743 19.86C68.5783 20.124 67.9903 20.4 67.5103 20.688V33H63.5863ZM84.4607 33.36C81.4847 33.36 79.1807 32.628 77.5487 31.164C75.9167 29.7 75.1007 27.456 75.1007 24.432C75.1007 21.696 75.7967 19.536 77.1887 17.952C78.5807 16.368 80.6927 15.576 83.5247 15.576C86.1167 15.576 88.0607 16.26 89.3567 17.628C90.6767 18.972 91.3367 20.712 91.3367 22.848V26.016H78.8447C79.0367 27.672 79.6367 28.812 80.6447 29.436C81.6527 30.06 83.1887 30.372 85.2527 30.372C86.1167 30.372 87.0047 30.288 87.9167 30.12C88.8287 29.952 89.6207 29.736 90.2927 29.472V32.352C89.5247 32.688 88.6367 32.94 87.6287 33.108C86.6447 33.276 85.5887 33.36 84.4607 33.36ZM78.8447 23.46H87.8807V22.272C87.8807 21.096 87.5567 20.184 86.9087 19.536C86.2607 18.864 85.1687 18.528 83.6327 18.528C81.8087 18.528 80.5487 18.924 79.8527 19.716C79.1807 20.508 78.8447 21.756 78.8447 23.46ZM100.669 33.36C99.4928 33.36 98.3648 33.276 97.2848 33.108C96.2288 32.94 95.3528 32.736 94.6568 32.496V29.184C95.4728 29.496 96.3728 29.736 97.3568 29.904C98.3408 30.072 99.2768 30.156 100.165 30.156C101.509 30.156 102.469 30.036 103.045 29.796C103.621 29.556 103.909 29.088 103.909 28.392C103.909 27.888 103.729 27.492 103.369 27.204C103.033 26.916 102.517 26.652 101.821 26.412C101.149 26.172 100.285 25.884 99.2288 25.548C98.2208 25.212 97.3448 24.852 96.6008 24.468C95.8568 24.06 95.2808 23.544 94.8728 22.92C94.4648 22.296 94.2608 21.48 94.2608 20.472C94.2608 18.912 94.8248 17.712 95.9528 16.872C97.0808 16.008 98.8928 15.576 101.389 15.576C102.373 15.576 103.309 15.648 104.197 15.792C105.085 15.936 105.841 16.116 106.465 16.332V19.608C105.793 19.344 105.049 19.14 104.233 18.996C103.441 18.852 102.697 18.78 102.001 18.78C100.753 18.78 99.8048 18.888 99.1568 19.104C98.5328 19.32 98.2208 19.752 98.2208 20.4C98.2208 21.072 98.5448 21.552 99.1928 21.84C99.8648 22.104 100.933 22.476 102.397 22.956C103.741 23.364 104.809 23.796 105.601 24.252C106.393 24.708 106.957 25.26 107.293 25.908C107.653 26.532 107.833 27.348 107.833 28.356C107.833 30.036 107.221 31.296 105.997 32.136C104.773 32.952 102.997 33.36 100.669 33.36Z" fill="#8874DF"/>
</svg>
