<svg width="79" height="69" viewBox="0 0 79 69" fill="none" xmlns="http://www.w3.org/2000/svg">
<rect width="78.2022" height="68.8" rx="7" fill="#37265A"/>
<path d="M57.7504 19.2121C56.7076 18.1688 55.4695 17.3412 54.1067 16.7765C52.744 16.2119 51.2834 15.9213 49.8083 15.9213C48.3332 15.9213 46.8726 16.2119 45.5099 16.7765C44.1472 17.3412 42.909 18.1688 41.8662 19.2121L39.7021 21.3762L37.5379 19.2121C35.4315 17.1057 32.5747 15.9224 29.5958 15.9224C26.617 15.9224 23.7601 17.1057 21.6537 19.2121C19.5474 21.3184 18.364 24.1753 18.364 27.1542C18.364 30.133 19.5474 32.9899 21.6537 35.0962L39.7021 53.1446L57.7504 35.0962C58.7937 34.0534 59.6213 32.8153 60.1859 31.4526C60.7506 30.0899 61.0412 28.6292 61.0412 27.1542C61.0412 25.6791 60.7506 24.2185 60.1859 22.8557C59.6213 21.493 58.7937 20.2549 57.7504 19.2121Z" stroke="#B8AAF3" stroke-width="4" stroke-linecap="round" stroke-linejoin="round"/>
<path d="M23.2668 32.1105C23.0346 31.88 22.8023 30.7203 22.5979 29.8139C22.4111 28.9849 22.3936 27.926 22.5962 27.0196C22.8037 26.0911 23.6126 25.3622 24.4571 24.4295C25.2468 23.5573 26.0577 22.973 26.786 22.6228C27.8885 22.0927 29.3725 21.5758 30.9443 21.3121C31.4619 21.2253 32.1599 21.2824 32.5738 21.3689C33.5304 21.5687 33.8015 22.6761 34.2967 23.3467C34.7869 24.0107 35.4886 24.4819 36.5068 24.9194C37.4108 25.3079 38.6288 25.2399 40.0251 25.4442C43.3155 25.9258 44.0463 25.0094 44.9196 24.4575C45.7698 23.9201 46.7219 23.4969 47.8292 22.8568C49.1892 22.0706 49.9843 22.0404 53.0319 22.0674C54.5389 22.0808 55.2237 23.2594 55.7206 24.0444C56.3665 25.065 55.8105 26.8676 55.5774 27.5959C55.31 28.431 54.8814 29.138 54.3269 29.9824C53.7834 30.81 53.0756 31.4084 52.4067 32.1079C51.6731 32.8749 50.634 33.4448 49.4106 34.4062C48.0484 35.4767 47.3122 36.1239 46.3534 37.1133C45.5053 37.9884 45.0401 38.5707 45.068 38.775C45.1755 39.5607 46.3761 37.8773 47.3061 37.1779C48.2303 36.4828 49.1111 35.6069 49.4936 35.283C50.8278 34.1528 46.907 37.3464 45.4531 38.741C44.0518 40.0851 43.6446 40.8394 42.9757 41.5676C42.1671 42.4481 41.4336 42.9945 40.9079 43.6346C40.3821 44.2748 39.9177 44.8562 39.5396 45.5557C39.4461 45.7285 39.3937 45.9041 39.2776 45.9355C38.577 46.1252 38.2306 44.6886 37.7643 43.8442C37.3222 43.0435 36.8334 42.1282 36.3671 41.3694C35.9095 40.6248 35.1463 40.0884 34.418 39.2457C33.5514 38.2429 32.8759 37.4128 32.1764 36.5378C31.6009 35.8179 30.6055 35.5476 29.7611 35.1101C28.986 34.7085 28.3333 34.3233 28.0426 34.1495C27.3931 33.7614 27.633 30.7937 27.8932 29.1153C27.9813 28.5476 28.6791 28.3277 29.0564 28.153C29.9817 27.7246 32.0446 29.2498 33.3064 30.6216C33.9169 31.2853 34.3255 32.107 35.1105 32.7488C35.7772 33.2939 36.8264 33.4483 40.7996 33.306C45.4782 33.1384 46.7219 31.6459 47.7139 31.0941C48.843 30.4659 49.9843 29.4943 50.6838 29.0559C51.0322 28.6804 51.4409 28.2124 51.8478 27.7766C52.0242 27.5714 52.1394 27.3985 52.4329 27.0457" stroke="#B8AAF3" stroke-width="10" stroke-linecap="round"/>
<line x1="20.3275" y1="51.4797" x2="63.4797" y2="15.6725" stroke="#A799E4" stroke-width="5" stroke-linecap="round"/>
</svg>
