<svg width="331" height="72" viewBox="0 0 331 72" fill="none" xmlns="http://www.w3.org/2000/svg">
<path d="M19.602 60.54C13.878 60.54 9.558 58.992 6.642 55.896C3.762 52.8 2.322 48.606 2.322 43.314C2.322 39.498 2.952 36.204 4.212 33.432C5.472 30.624 7.38 28.464 9.936 26.952C12.528 25.44 15.804 24.684 19.764 24.684C21.816 24.684 23.67 24.828 25.326 25.116C27.018 25.368 28.602 25.746 30.078 26.25V31.326C27.126 30.246 23.85 29.706 20.25 29.706C15.822 29.706 12.708 30.876 10.908 33.216C9.144 35.556 8.262 38.922 8.262 43.314C8.262 47.31 9.198 50.352 11.07 52.44C12.942 54.528 15.84 55.572 19.764 55.572C22.86 55.572 25.362 55.212 27.27 54.492V44.772H18.576V40.938H32.292V57.678C31.176 58.398 29.574 59.064 27.486 59.676C25.434 60.252 22.806 60.54 19.602 60.54ZM45.9878 60.54C44.3678 60.54 42.8558 60.252 41.4518 59.676C40.0838 59.1 38.9858 58.236 38.1577 57.084C37.3298 55.896 36.9158 54.438 36.9158 52.71C36.9158 50.262 37.7438 48.3 39.3998 46.824C41.0918 45.312 43.6838 44.556 47.1758 44.556H55.3838V43.422C55.3838 42.198 55.1858 41.226 54.7898 40.506C54.4298 39.786 53.7458 39.264 52.7378 38.94C51.7658 38.616 50.3258 38.454 48.4178 38.454C45.3938 38.454 42.5678 38.904 39.9398 39.804V35.43C41.0918 34.962 42.4958 34.584 44.1518 34.296C45.8078 34.008 47.5898 33.864 49.4978 33.864C53.2418 33.864 56.0858 34.62 58.0298 36.132C60.0098 37.644 60.9998 40.11 60.9998 43.53V60H55.9778L55.5998 57.408C54.5558 58.416 53.2598 59.19 51.7118 59.73C50.1998 60.27 48.2918 60.54 45.9878 60.54ZM47.5538 56.328C49.3178 56.328 50.8478 56.04 52.1438 55.464C53.4758 54.852 54.5558 54.042 55.3838 53.034V48.552H47.2838C45.5558 48.552 44.2958 48.894 43.5038 49.578C42.7478 50.226 42.3698 51.234 42.3698 52.602C42.3698 53.934 42.8198 54.888 43.7198 55.464C44.6198 56.04 45.8978 56.328 47.5538 56.328ZM67.527 60V34.404H72.927L73.197 37.104C74.457 36.096 75.843 35.304 77.355 34.728C78.867 34.152 80.487 33.864 82.215 33.864C84.051 33.864 85.473 34.17 86.481 34.782C87.525 35.358 88.317 36.168 88.857 37.212C90.045 36.24 91.413 35.448 92.961 34.836C94.509 34.188 96.363 33.864 98.523 33.864C101.475 33.864 103.653 34.62 105.057 36.132C106.461 37.644 107.163 39.966 107.163 43.098V60H101.385V43.692C101.385 41.712 100.971 40.326 100.143 39.534C99.315 38.742 97.965 38.346 96.093 38.346C94.869 38.346 93.699 38.562 92.583 38.994C91.503 39.426 90.567 40.074 89.775 40.938C89.883 41.334 89.955 41.748 89.991 42.18C90.027 42.612 90.045 43.08 90.045 43.584V60H84.591V43.746C84.591 41.874 84.267 40.506 83.619 39.642C82.971 38.778 81.747 38.346 79.947 38.346C78.687 38.346 77.481 38.652 76.329 39.264C75.213 39.84 74.205 40.542 73.305 41.37V60H67.527ZM126.208 60.54C121.744 60.54 118.288 59.442 115.84 57.246C113.392 55.05 112.168 51.684 112.168 47.148C112.168 43.044 113.212 39.804 115.3 37.428C117.388 35.052 120.556 33.864 124.804 33.864C128.692 33.864 131.608 34.89 133.552 36.942C135.532 38.958 136.522 41.568 136.522 44.772V49.524H117.784C118.072 52.008 118.972 53.718 120.484 54.654C121.996 55.59 124.3 56.058 127.396 56.058C128.692 56.058 130.024 55.932 131.392 55.68C132.76 55.428 133.948 55.104 134.956 54.708V59.028C133.804 59.532 132.472 59.91 130.96 60.162C129.484 60.414 127.9 60.54 126.208 60.54ZM117.784 45.69H131.338V43.908C131.338 42.144 130.852 40.776 129.88 39.804C128.908 38.796 127.27 38.292 124.966 38.292C122.23 38.292 120.34 38.886 119.296 40.074C118.288 41.262 117.784 43.134 117.784 45.69ZM152.782 60.54C148.282 60.54 144.664 59.964 141.928 58.812V53.628C143.476 54.204 145.132 54.672 146.896 55.032C148.696 55.392 150.478 55.572 152.242 55.572C155.014 55.572 157.084 55.248 158.452 54.6C159.856 53.952 160.558 52.656 160.558 50.712C160.558 49.524 160.27 48.57 159.694 47.85C159.118 47.13 158.164 46.518 156.832 46.014C155.5 45.474 153.664 44.916 151.324 44.34C147.58 43.368 144.952 42.144 143.44 40.668C141.928 39.156 141.172 37.086 141.172 34.458C141.172 31.398 142.288 29.004 144.52 27.276C146.752 25.548 150.082 24.684 154.51 24.684C156.526 24.684 158.416 24.828 160.18 25.116C161.98 25.404 163.384 25.728 164.392 26.088V31.272C161.656 30.228 158.632 29.706 155.32 29.706C152.728 29.706 150.712 30.048 149.272 30.732C147.832 31.416 147.112 32.658 147.112 34.458C147.112 35.502 147.364 36.348 147.868 36.996C148.372 37.644 149.236 38.202 150.46 38.67C151.72 39.138 153.448 39.66 155.644 40.236C158.488 40.956 160.684 41.82 162.232 42.828C163.816 43.8 164.914 44.952 165.526 46.284C166.174 47.58 166.498 49.056 166.498 50.712C166.498 53.772 165.364 56.184 163.096 57.948C160.828 59.676 157.39 60.54 152.782 60.54ZM176.504 60L169.754 34.404H175.64L180.068 53.034L185.09 37.536V34.404H189.572L195.134 53.034L199.562 34.404H205.394L198.698 60H193.136L187.682 43.26L182.12 60H176.504ZM211.384 29.058V24.198H217.81V29.058H211.384ZM211.87 60V38.886H207.982L208.522 34.404H217.756V60H211.87ZM224.623 71.664V34.404H229.699L230.023 36.942C231.175 35.898 232.435 35.124 233.803 34.62C235.171 34.116 236.791 33.864 238.663 33.864C242.335 33.864 245.197 34.872 247.249 36.888C249.301 38.868 250.327 42.162 250.327 46.77C250.327 51.378 249.265 54.834 247.141 57.138C245.017 59.406 242.119 60.54 238.447 60.54C235.351 60.54 232.705 59.82 230.509 58.38V71.664H224.623ZM236.935 56.112C241.903 56.112 244.387 52.98 244.387 46.716C244.387 43.692 243.829 41.55 242.713 40.29C241.597 38.994 239.725 38.346 237.097 38.346C234.469 38.346 232.273 39.246 230.509 41.046V53.844C231.337 54.528 232.255 55.086 233.263 55.518C234.307 55.914 235.531 56.112 236.935 56.112ZM269.012 60.54C264.548 60.54 261.092 59.442 258.644 57.246C256.196 55.05 254.972 51.684 254.972 47.148C254.972 43.044 256.016 39.804 258.104 37.428C260.192 35.052 263.36 33.864 267.608 33.864C271.496 33.864 274.412 34.89 276.356 36.942C278.336 38.958 279.326 41.568 279.326 44.772V49.524H260.588C260.876 52.008 261.776 53.718 263.288 54.654C264.8 55.59 267.104 56.058 270.2 56.058C271.496 56.058 272.828 55.932 274.196 55.68C275.564 55.428 276.752 55.104 277.76 54.708V59.028C276.608 59.532 275.276 59.91 273.764 60.162C272.288 60.414 270.704 60.54 269.012 60.54ZM260.588 45.69H274.142V43.908C274.142 42.144 273.656 40.776 272.684 39.804C271.712 38.796 270.074 38.292 267.77 38.292C265.034 38.292 263.144 38.886 262.1 40.074C261.092 41.262 260.588 43.134 260.588 45.69Z" fill="#AD9DF8"/>
</svg>
