<svg width="223" height="50" viewBox="0 0 223 50" fill="none" xmlns="http://www.w3.org/2000/svg">
<rect y="7" width="223" height="43" rx="7" fill="#251949"/>
<path d="M17.0673 40.36C14.0673 40.36 11.6553 39.976 9.8313 39.208V35.752C10.8633 36.136 11.9673 36.448 13.1433 36.688C14.3433 36.928 15.5313 37.048 16.7073 37.048C18.5553 37.048 19.9353 36.832 20.8473 36.4C21.7833 35.968 22.2513 35.104 22.2513 33.808C22.2513 33.016 22.0593 32.38 21.6753 31.9C21.2913 31.42 20.6553 31.012 19.7673 30.676C18.8793 30.316 17.6553 29.944 16.0953 29.56C13.5993 28.912 11.8473 28.096 10.8393 27.112C9.8313 26.104 9.3273 24.724 9.3273 22.972C9.3273 20.932 10.0713 19.336 11.5593 18.184C13.0473 17.032 15.2673 16.456 18.2193 16.456C19.5633 16.456 20.8233 16.552 21.9993 16.744C23.1993 16.936 24.1353 17.152 24.8073 17.392V20.848C22.9833 20.152 20.9673 19.804 18.7593 19.804C17.0313 19.804 15.6873 20.032 14.7273 20.488C13.7673 20.944 13.2873 21.772 13.2873 22.972C13.2873 23.668 13.4553 24.232 13.7913 24.664C14.1273 25.096 14.7033 25.468 15.5193 25.78C16.3593 26.092 17.5113 26.44 18.9753 26.824C20.8713 27.304 22.3353 27.88 23.3673 28.552C24.4233 29.2 25.1553 29.968 25.5633 30.856C25.9953 31.72 26.2113 32.704 26.2113 33.808C26.2113 35.848 25.4553 37.456 23.9433 38.632C22.4313 39.784 20.1393 40.36 17.0673 40.36ZM38.656 40.36C35.68 40.36 33.376 39.628 31.744 38.164C30.112 36.7 29.296 34.456 29.296 31.432C29.296 28.696 29.992 26.536 31.384 24.952C32.776 23.368 34.888 22.576 37.72 22.576C40.312 22.576 42.256 23.26 43.552 24.628C44.872 25.972 45.532 27.712 45.532 29.848V33.016H33.04C33.232 34.672 33.832 35.812 34.84 36.436C35.848 37.06 37.384 37.372 39.448 37.372C40.312 37.372 41.2 37.288 42.112 37.12C43.024 36.952 43.816 36.736 44.488 36.472V39.352C43.72 39.688 42.832 39.94 41.824 40.108C40.84 40.276 39.784 40.36 38.656 40.36ZM33.04 30.46H42.076V29.272C42.076 28.096 41.752 27.184 41.104 26.536C40.456 25.864 39.364 25.528 37.828 25.528C36.004 25.528 34.744 25.924 34.048 26.716C33.376 27.508 33.04 28.756 33.04 30.46ZM66.0369 40.36C63.0369 40.36 60.7689 39.604 59.2329 38.092C57.6969 36.556 56.9289 34.348 56.9289 31.468C56.9289 28.468 57.7689 26.236 59.4489 24.772C61.1529 23.308 63.4209 22.576 66.2529 22.576C67.4289 22.576 68.4129 22.66 69.2049 22.828C70.0209 22.996 70.8009 23.26 71.5449 23.62V26.536C70.2969 25.912 68.7849 25.6 67.0089 25.6C65.0409 25.6 63.5289 26.044 62.4729 26.932C61.4169 27.796 60.8889 29.308 60.8889 31.468C60.8889 33.508 61.3569 35.008 62.2929 35.968C63.2289 36.904 64.7769 37.372 66.9369 37.372C68.6409 37.372 70.1889 37.048 71.5809 36.4V39.388C70.7889 39.7 69.9369 39.94 69.0249 40.108C68.1369 40.276 67.1409 40.36 66.0369 40.36ZM82.8716 40.36C79.7996 40.36 77.5436 39.592 76.1036 38.056C74.6876 36.52 73.9796 34.324 73.9796 31.468C73.9796 28.612 74.6996 26.416 76.1396 24.88C77.5796 23.344 79.8236 22.576 82.8716 22.576C85.9436 22.576 88.1996 23.344 89.6396 24.88C91.0796 26.416 91.7996 28.612 91.7996 31.468C91.7996 34.324 91.0796 36.52 89.6396 38.056C88.2236 39.592 85.9676 40.36 82.8716 40.36ZM82.8716 37.048C84.6716 37.048 85.9436 36.616 86.6876 35.752C87.4556 34.864 87.8396 33.436 87.8396 31.468C87.8396 29.5 87.4556 28.084 86.6876 27.22C85.9436 26.356 84.6716 25.924 82.8716 25.924C81.0956 25.924 79.8236 26.356 79.0556 27.22C78.3116 28.084 77.9396 29.5 77.9396 31.468C77.9396 33.436 78.3116 34.864 79.0556 35.752C79.8236 36.616 81.0956 37.048 82.8716 37.048ZM95.6176 40V22.936H99.2176L99.3976 24.736C100.166 24.136 101.078 23.632 102.134 23.224C103.214 22.792 104.402 22.576 105.698 22.576C107.906 22.576 109.514 23.092 110.522 24.124C111.53 25.156 112.034 26.764 112.034 28.948V40H108.146V29.128C108.146 27.808 107.87 26.884 107.318 26.356C106.79 25.828 105.782 25.564 104.294 25.564C103.406 25.564 102.53 25.744 101.666 26.104C100.826 26.464 100.118 26.932 99.5416 27.508V40H95.6176ZM116.43 40V22.936H120.03L120.21 24.736C120.978 24.136 121.89 23.632 122.946 23.224C124.026 22.792 125.214 22.576 126.51 22.576C128.718 22.576 130.326 23.092 131.334 24.124C132.342 25.156 132.846 26.764 132.846 28.948V40H128.958V29.128C128.958 27.808 128.682 26.884 128.13 26.356C127.602 25.828 126.594 25.564 125.106 25.564C124.218 25.564 123.342 25.744 122.478 26.104C121.638 26.464 120.93 26.932 120.354 27.508V40H116.43ZM145.531 40.36C142.555 40.36 140.251 39.628 138.619 38.164C136.987 36.7 136.171 34.456 136.171 31.432C136.171 28.696 136.867 26.536 138.259 24.952C139.651 23.368 141.763 22.576 144.595 22.576C147.187 22.576 149.131 23.26 150.427 24.628C151.747 25.972 152.407 27.712 152.407 29.848V33.016H139.915C140.107 34.672 140.707 35.812 141.715 36.436C142.723 37.06 144.259 37.372 146.323 37.372C147.187 37.372 148.075 37.288 148.987 37.12C149.899 36.952 150.691 36.736 151.363 36.472V39.352C150.595 39.688 149.707 39.94 148.699 40.108C147.715 40.276 146.659 40.36 145.531 40.36ZM139.915 30.46H148.951V29.272C148.951 28.096 148.627 27.184 147.979 26.536C147.331 25.864 146.239 25.528 144.703 25.528C142.879 25.528 141.619 25.924 140.923 26.716C140.251 27.508 139.915 28.756 139.915 30.46ZM164.615 40.36C161.615 40.36 159.347 39.604 157.811 38.092C156.275 36.556 155.507 34.348 155.507 31.468C155.507 28.468 156.347 26.236 158.027 24.772C159.731 23.308 161.999 22.576 164.831 22.576C166.007 22.576 166.991 22.66 167.783 22.828C168.599 22.996 169.379 23.26 170.123 23.62V26.536C168.875 25.912 167.363 25.6 165.587 25.6C163.619 25.6 162.107 26.044 161.051 26.932C159.995 27.796 159.467 29.308 159.467 31.468C159.467 33.508 159.935 35.008 160.871 35.968C161.807 36.904 163.355 37.372 165.515 37.372C167.219 37.372 168.767 37.048 170.159 36.4V39.388C169.367 39.7 168.515 39.94 167.603 40.108C166.715 40.276 165.719 40.36 164.615 40.36ZM179.794 40.36C177.97 40.36 176.602 39.88 175.69 38.92C174.802 37.936 174.358 36.604 174.358 34.924V25.996H171.838V22.936H174.358V19.012L178.246 17.824V22.936H182.782L182.53 25.996H178.246V34.708C178.246 35.692 178.474 36.388 178.93 36.796C179.386 37.18 180.13 37.372 181.162 37.372C181.81 37.372 182.494 37.252 183.214 37.012V39.784C182.278 40.168 181.138 40.36 179.794 40.36ZM194.855 40.36C191.879 40.36 189.575 39.628 187.943 38.164C186.311 36.7 185.495 34.456 185.495 31.432C185.495 28.696 186.191 26.536 187.583 24.952C188.975 23.368 191.087 22.576 193.919 22.576C196.511 22.576 198.455 23.26 199.751 24.628C201.071 25.972 201.731 27.712 201.731 29.848V33.016H189.239C189.431 34.672 190.031 35.812 191.039 36.436C192.047 37.06 193.583 37.372 195.647 37.372C196.511 37.372 197.399 37.288 198.311 37.12C199.223 36.952 200.015 36.736 200.687 36.472V39.352C199.919 39.688 199.031 39.94 198.023 40.108C197.039 40.276 195.983 40.36 194.855 40.36ZM189.239 30.46H198.275V29.272C198.275 28.096 197.951 27.184 197.303 26.536C196.655 25.864 195.563 25.528 194.027 25.528C192.203 25.528 190.943 25.924 190.247 26.716C189.575 27.508 189.239 28.756 189.239 30.46ZM205.551 40V22.936H209.151L209.367 24.916C210.183 24.388 211.155 23.908 212.283 23.476C213.411 23.044 214.527 22.744 215.631 22.576V25.564C214.959 25.684 214.227 25.864 213.435 26.104C212.667 26.32 211.935 26.572 211.239 26.86C210.543 27.124 209.955 27.4 209.475 27.688V40H205.551Z" fill="#8874DF"/>
</svg>
