<svg width="281" height="50" viewBox="0 0 281 50" fill="none" xmlns="http://www.w3.org/2000/svg">
<path d="M19.602 38.54C13.878 38.54 9.558 36.992 6.642 33.896C3.762 30.8 2.322 26.606 2.322 21.314C2.322 17.498 2.952 14.204 4.212 11.432C5.472 8.624 7.38 6.464 9.936 4.952C12.528 3.44 15.804 2.684 19.764 2.684C21.816 2.684 23.67 2.828 25.326 3.116C27.018 3.368 28.602 3.746 30.078 4.25V9.326C27.126 8.246 23.85 7.706 20.25 7.706C15.822 7.706 12.708 8.876 10.908 11.216C9.144 13.556 8.262 16.922 8.262 21.314C8.262 25.31 9.198 28.352 11.07 30.44C12.942 32.528 15.84 33.572 19.764 33.572C22.86 33.572 25.362 33.212 27.27 32.492V22.772H18.576V18.938H32.292V35.678C31.176 36.398 29.574 37.064 27.486 37.676C25.434 38.252 22.806 38.54 19.602 38.54ZM45.9878 38.54C44.3678 38.54 42.8558 38.252 41.4518 37.676C40.0838 37.1 38.9858 36.236 38.1577 35.084C37.3298 33.896 36.9158 32.438 36.9158 30.71C36.9158 28.262 37.7438 26.3 39.3998 24.824C41.0918 23.312 43.6838 22.556 47.1758 22.556H55.3838V21.422C55.3838 20.198 55.1858 19.226 54.7898 18.506C54.4298 17.786 53.7458 17.264 52.7378 16.94C51.7658 16.616 50.3258 16.454 48.4178 16.454C45.3938 16.454 42.5678 16.904 39.9398 17.804V13.43C41.0918 12.962 42.4958 12.584 44.1518 12.296C45.8078 12.008 47.5898 11.864 49.4978 11.864C53.2418 11.864 56.0858 12.62 58.0298 14.132C60.0098 15.644 60.9998 18.11 60.9998 21.53V38H55.9778L55.5998 35.408C54.5558 36.416 53.2598 37.19 51.7118 37.73C50.1998 38.27 48.2918 38.54 45.9878 38.54ZM47.5538 34.328C49.3178 34.328 50.8478 34.04 52.1438 33.464C53.4758 32.852 54.5558 32.042 55.3838 31.034V26.552H47.2838C45.5558 26.552 44.2958 26.894 43.5038 27.578C42.7478 28.226 42.3698 29.234 42.3698 30.602C42.3698 31.934 42.8198 32.888 43.7198 33.464C44.6198 34.04 45.8978 34.328 47.5538 34.328ZM67.527 38V12.404H72.927L73.197 15.104C74.457 14.096 75.843 13.304 77.355 12.728C78.867 12.152 80.487 11.864 82.215 11.864C84.051 11.864 85.473 12.17 86.481 12.782C87.525 13.358 88.317 14.168 88.857 15.212C90.045 14.24 91.413 13.448 92.961 12.836C94.509 12.188 96.363 11.864 98.523 11.864C101.475 11.864 103.653 12.62 105.057 14.132C106.461 15.644 107.163 17.966 107.163 21.098V38H101.385V21.692C101.385 19.712 100.971 18.326 100.143 17.534C99.315 16.742 97.965 16.346 96.093 16.346C94.869 16.346 93.699 16.562 92.583 16.994C91.503 17.426 90.567 18.074 89.775 18.938C89.883 19.334 89.955 19.748 89.991 20.18C90.027 20.612 90.045 21.08 90.045 21.584V38H84.591V21.746C84.591 19.874 84.267 18.506 83.619 17.642C82.971 16.778 81.747 16.346 79.947 16.346C78.687 16.346 77.481 16.652 76.329 17.264C75.213 17.84 74.205 18.542 73.305 19.37V38H67.527ZM126.208 38.54C121.744 38.54 118.288 37.442 115.84 35.246C113.392 33.05 112.168 29.684 112.168 25.148C112.168 21.044 113.212 17.804 115.3 15.428C117.388 13.052 120.556 11.864 124.804 11.864C128.692 11.864 131.608 12.89 133.552 14.942C135.532 16.958 136.522 19.568 136.522 22.772V27.524H117.784C118.072 30.008 118.972 31.718 120.484 32.654C121.996 33.59 124.3 34.058 127.396 34.058C128.692 34.058 130.024 33.932 131.392 33.68C132.76 33.428 133.948 33.104 134.956 32.708V37.028C133.804 37.532 132.472 37.91 130.96 38.162C129.484 38.414 127.9 38.54 126.208 38.54ZM117.784 23.69H131.338V21.908C131.338 20.144 130.852 18.776 129.88 17.804C128.908 16.796 127.27 16.292 124.966 16.292C122.23 16.292 120.34 16.886 119.296 18.074C118.288 19.262 117.784 21.134 117.784 23.69ZM152.782 38.54C148.282 38.54 144.664 37.964 141.928 36.812V31.628C143.476 32.204 145.132 32.672 146.896 33.032C148.696 33.392 150.478 33.572 152.242 33.572C155.014 33.572 157.084 33.248 158.452 32.6C159.856 31.952 160.558 30.656 160.558 28.712C160.558 27.524 160.27 26.57 159.694 25.85C159.118 25.13 158.164 24.518 156.832 24.014C155.5 23.474 153.664 22.916 151.324 22.34C147.58 21.368 144.952 20.144 143.44 18.668C141.928 17.156 141.172 15.086 141.172 12.458C141.172 9.398 142.288 7.004 144.52 5.276C146.752 3.548 150.082 2.684 154.51 2.684C156.526 2.684 158.416 2.828 160.18 3.116C161.98 3.404 163.384 3.728 164.392 4.088V9.272C161.656 8.228 158.632 7.706 155.32 7.706C152.728 7.706 150.712 8.048 149.272 8.732C147.832 9.416 147.112 10.658 147.112 12.458C147.112 13.502 147.364 14.348 147.868 14.996C148.372 15.644 149.236 16.202 150.46 16.67C151.72 17.138 153.448 17.66 155.644 18.236C158.488 18.956 160.684 19.82 162.232 20.828C163.816 21.8 164.914 22.952 165.526 24.284C166.174 25.58 166.498 27.056 166.498 28.712C166.498 31.772 165.364 34.184 163.096 35.948C160.828 37.676 157.39 38.54 152.782 38.54ZM176.504 38L169.754 12.404H175.64L180.068 31.034L185.09 15.536V12.404H189.572L195.134 31.034L199.562 12.404H205.394L198.698 38H193.136L187.682 21.26L182.12 38H176.504ZM211.384 7.058V2.198H217.81V7.058H211.384ZM211.87 38V16.886H207.982L208.522 12.404H217.756V38H211.87ZM224.623 49.664V12.404H229.699L230.023 14.942C231.175 13.898 232.435 13.124 233.803 12.62C235.171 12.116 236.791 11.864 238.663 11.864C242.335 11.864 245.197 12.872 247.249 14.888C249.301 16.868 250.327 20.162 250.327 24.77C250.327 29.378 249.265 32.834 247.141 35.138C245.017 37.406 242.119 38.54 238.447 38.54C235.351 38.54 232.705 37.82 230.509 36.38V49.664H224.623ZM236.935 34.112C241.903 34.112 244.387 30.98 244.387 24.716C244.387 21.692 243.829 19.55 242.713 18.29C241.597 16.994 239.725 16.346 237.097 16.346C234.469 16.346 232.273 17.246 230.509 19.046V31.844C231.337 32.528 232.255 33.086 233.263 33.518C234.307 33.914 235.531 34.112 236.935 34.112ZM269.012 38.54C264.548 38.54 261.092 37.442 258.644 35.246C256.196 33.05 254.972 29.684 254.972 25.148C254.972 21.044 256.016 17.804 258.104 15.428C260.192 13.052 263.36 11.864 267.608 11.864C271.496 11.864 274.412 12.89 276.356 14.942C278.336 16.958 279.326 19.568 279.326 22.772V27.524H260.588C260.876 30.008 261.776 31.718 263.288 32.654C264.8 33.59 267.104 34.058 270.2 34.058C271.496 34.058 272.828 33.932 274.196 33.68C275.564 33.428 276.752 33.104 277.76 32.708V37.028C276.608 37.532 275.276 37.91 273.764 38.162C272.288 38.414 270.704 38.54 269.012 38.54ZM260.588 23.69H274.142V21.908C274.142 20.144 273.656 18.776 272.684 17.804C271.712 16.796 270.074 16.292 267.77 16.292C265.034 16.292 263.144 16.886 262.1 18.074C261.092 19.262 260.588 21.134 260.588 23.69Z" fill="#8874DF"/>
</svg>
