<svg width="75" height="56" viewBox="0 0 75 56" fill="none" xmlns="http://www.w3.org/2000/svg">
<path d="M74.25 27.8438C74.25 28.6643 73.9241 29.4512 73.3439 30.0314C72.7637 30.6116 71.9768 30.9375 71.1562 30.9375H3.09375C2.27324 30.9375 1.48633 30.6116 0.906139 30.0314C0.325948 29.4512 0 28.6643 0 27.8438C0 27.0232 0.325948 26.2363 0.906139 25.6561C1.48633 25.0759 2.27324 24.75 3.09375 24.75H71.1562C71.9768 24.75 72.7637 25.0759 73.3439 25.6561C73.9241 26.2363 74.25 27.0232 74.25 27.8438ZM3.09375 6.1875H71.1562C71.9768 6.1875 72.7637 5.86155 73.3439 5.28136C73.9241 4.70117 74.25 3.91426 74.25 3.09375C74.25 2.27324 73.9241 1.48633 73.3439 0.906139C72.7637 0.325948 71.9768 0 71.1562 0H3.09375C2.27324 0 1.48633 0.325948 0.906139 0.906139C0.325948 1.48633 0 2.27324 0 3.09375C0 3.91426 0.325948 4.70117 0.906139 5.28136C1.48633 5.86155 2.27324 6.1875 3.09375 6.1875ZM71.1562 49.5H3.09375C2.27324 49.5 1.48633 49.8259 0.906139 50.4061C0.325948 50.9863 0 51.7732 0 52.5938C0 53.4143 0.325948 54.2012 0.906139 54.7814C1.48633 55.3616 2.27324 55.6875 3.09375 55.6875H71.1562C71.9768 55.6875 72.7637 55.3616 73.3439 54.7814C73.9241 54.2012 74.25 53.4143 74.25 52.5938C74.25 51.7732 73.9241 50.9863 73.3439 50.4061C72.7637 49.8259 71.9768 49.5 71.1562 49.5Z" fill="#8874DF"/>
</svg>
