<svg width="47" height="47" viewBox="0 0 47 47" fill="none" xmlns="http://www.w3.org/2000/svg">
<path d="M23.4803 3.91675C12.6703 3.91675 3.9165 12.6901 3.9165 23.5001C3.9165 34.3101 12.6703 43.0834 23.4803 43.0834C34.3098 43.0834 43.0832 34.3101 43.0832 23.5001C43.0832 12.6901 34.3098 3.91675 23.4803 3.91675ZM23.4998 39.1667C14.844 39.1667 7.83317 32.1559 7.83317 23.5001C7.83317 14.8442 14.844 7.83341 23.4998 7.83341C32.1557 7.83341 39.1665 14.8442 39.1665 23.5001C39.1665 32.1559 32.1557 39.1667 23.4998 39.1667ZM24.479 13.7084H21.5415V25.4584L31.8228 31.6272L33.2915 29.2184L24.479 23.9897V13.7084Z" fill="black"/>
</svg>