<svg width="50" height="50" viewBox="0 0 50 50" fill="none" xmlns="http://www.w3.org/2000/svg">
<path d="M42.7504 10.2122C41.7076 9.16891 40.4695 8.34131 39.1067 7.77666C37.744 7.21201 36.2834 6.92139 34.8083 6.92139C33.3332 6.92139 31.8726 7.21201 30.5099 7.77666C29.1472 8.34131 27.909 9.16891 26.8662 10.2122L24.7021 12.3764L22.5379 10.2122C20.4315 8.10583 17.5747 6.92248 14.5958 6.92248C11.617 6.92248 8.7601 8.10583 6.65373 10.2122C4.54736 12.3186 3.36401 15.1754 3.36401 18.1543C3.36401 21.1331 4.54736 23.99 6.65373 26.0964L24.7021 44.1447L42.7504 26.0964C43.7937 25.0536 44.6213 23.8154 45.1859 22.4527C45.7506 21.09 46.0412 19.6294 46.0412 18.1543C46.0412 16.6792 45.7506 15.2186 45.1859 13.8558C44.6213 12.4931 43.7937 11.255 42.7504 10.2122Z" stroke="#8874DF" stroke-width="4" stroke-linecap="round" stroke-linejoin="round"/>
<path d="M8.26684 23.1106C8.03457 22.8801 7.80228 21.7204 7.59794 20.814C7.41106 19.985 7.3936 18.9261 7.5962 18.0197C7.80372 17.0912 8.61264 16.3623 9.45706 15.4297C10.2468 14.5574 11.0577 13.9731 11.786 13.6229C12.8885 13.0928 14.3725 12.5759 15.9443 12.3122C16.4619 12.2254 17.1599 12.2825 17.5738 12.369C18.5304 12.5688 18.8015 13.6762 19.2967 14.3469C19.7869 15.0109 20.4886 15.4821 21.5068 15.9196C22.4108 16.308 23.6288 16.24 25.0251 16.4444C28.3155 16.9259 29.0463 16.0095 29.9196 15.4576C30.7698 14.9203 31.7219 14.4971 32.8292 13.857C34.1892 13.0707 34.9843 13.0405 38.0319 13.0676C39.5389 13.081 40.2237 14.2595 40.7206 15.0446C41.3665 16.0651 40.8105 17.8677 40.5774 18.596C40.31 19.4311 39.8814 20.1381 39.3269 20.9826C38.7834 21.8102 38.0756 22.4086 37.4067 23.108C36.6731 23.8751 35.634 24.4449 34.4106 25.4064C33.0484 26.4769 32.3122 27.124 31.3534 28.1134C30.5053 28.9885 30.0401 29.5708 30.068 29.7752C30.1755 30.5609 31.3761 28.8775 32.3061 28.178C33.2303 27.4829 34.1111 26.6071 34.4936 26.2831C35.8278 25.153 31.907 28.3465 30.4531 29.7411C29.0518 31.0852 28.6446 31.8395 27.9757 32.5678C27.1671 33.4482 26.4336 33.9946 25.9079 34.6347C25.3821 35.275 24.9177 35.8564 24.5396 36.5558C24.4461 36.7286 24.3937 36.9042 24.2776 36.9357C23.577 37.1253 23.2306 35.6887 22.7643 34.8443C22.3222 34.0437 21.8334 33.1284 21.3671 32.3695C20.9095 31.6249 20.1463 31.0885 19.418 30.2458C18.5514 29.2431 17.8759 28.4129 17.1764 27.5379C16.6009 26.818 15.6055 26.5477 14.7611 26.1102C13.986 25.7086 13.3333 25.3234 13.0426 25.1496C12.3931 24.7615 12.633 21.7938 12.8932 20.1154C12.9813 19.5477 13.6791 19.3278 14.0564 19.1531C14.9817 18.7247 17.0446 20.2499 18.3064 21.6218C18.9169 22.2855 19.3255 23.1071 20.1105 23.749C20.7772 24.2941 21.8264 24.4484 25.7996 24.3061C30.4782 24.1385 31.7219 22.6461 32.7139 22.0942C33.843 21.466 34.9843 20.4944 35.6838 20.0561C36.0322 19.6806 36.4409 19.2125 36.8478 18.7768C37.0242 18.5716 37.1394 18.3987 37.4329 18.0459" stroke="#8874DF" stroke-width="10" stroke-linecap="round"/>
</svg>
